<?xml version="1.0" standalone="no"?>
<!DOCTYPE svg PUBLIC "-//W3C//DTD SVG 20010904//EN"
 "http://www.w3.org/TR/2001/REC-SVG-20010904/DTD/svg10.dtd">
<svg version="1.0" xmlns="http://www.w3.org/2000/svg"
 width="1024.000000pt" height="761.000000pt" viewBox="0 0 1024.000000 761.000000"
 preserveAspectRatio="xMidYMid meet">

<g transform="translate(0.000000,761.000000) scale(0.100000,-0.100000)"
fill="#241b2e" stroke="none">
<path d="M7133 4556 c-29 -7 -99 -36 -156 -65 -160 -81 -327 -220 -661 -551
l-289 -286 17 -35 c17 -37 61 -69 95 -69 12 0 77 53 164 133 222 204 259 237
266 237 4 0 31 -25 61 -55 30 -30 58 -55 62 -55 14 0 678 671 678 685 0 17
-44 48 -89 63 -42 15 -81 14 -148 -2z m172 -50 l27 -18 -59 -53 c-43 -40 -63
-52 -78 -48 -58 18 -101 -18 -90 -75 9 -46 -7 -63 -44 -49 -24 9 -34 7 -56 -7
-25 -16 -27 -23 -22 -62 6 -53 -6 -65 -55 -58 -52 9 -83 -23 -74 -76 7 -46
-11 -68 -43 -51 -47 26 -106 -33 -83 -83 9 -20 7 -27 -14 -47 l-24 -23 -51 50
c-60 58 -125 180 -107 201 56 68 358 302 455 353 124 65 259 84 318 46z m-109
-138 c7 -11 -50 -68 -68 -68 -16 0 -8 59 10 69 23 14 49 14 58 -1z m-121 -127
c6 -11 -65 -72 -77 -65 -13 8 -9 41 8 58 17 17 59 21 69 7z m-125 -131 c0 -11
-59 -60 -71 -60 -5 0 -9 13 -9 28 0 20 7 32 22 39 24 10 58 6 58 -7z m-414
-125 l13 -32 -121 -109 c-67 -60 -131 -119 -142 -130 -12 -12 -52 -47 -89 -79
l-69 -57 -24 23 c-13 12 -24 30 -24 38 0 9 93 109 207 223 l208 208 14 -27 c7
-15 19 -41 27 -58z m279 5 c7 -11 -47 -70 -64 -70 -18 0 -13 58 7 69 22 13 49
14 57 1z"/>
<path d="M6387 3928 c-6 -18 11 -48 26 -48 23 0 37 22 26 42 -11 20 -45 24
-52 6z m41 -16 c2 -7 -3 -12 -12 -12 -9 0 -16 7 -16 16 0 17 22 14 28 -4z"/>
<path d="M6284 3825 c-16 -41 27 -60 50 -22 8 14 8 20 -4 27 -22 14 -40 12
-46 -5z m36 -15 c0 -21 -15 -27 -25 -10 -7 12 2 30 16 30 5 0 9 -9 9 -20z"/>
<path d="M6174 3725 c-10 -25 22 -53 44 -39 9 6 17 20 17 30 0 25 -52 33 -61
9z m41 -25 c-5 -8 -11 -8 -17 -2 -6 6 -7 16 -3 22 5 8 11 8 17 2 6 -6 7 -16 3
-22z"/>
<path d="M3141 4545 c-124 -35 -225 -115 -277 -220 -27 -55 -29 -69 -29 -170
0 -98 3 -116 26 -166 47 -101 120 -166 229 -206 155 -57 357 -23 455 77 l37
38 -52 48 c-82 77 -83 77 -111 47 -88 -95 -264 -78 -338 33 -72 109 -35 271
73 324 81 39 206 22 267 -36 l26 -24 67 61 67 62 -28 29 c-15 16 -64 47 -108
69 -69 34 -91 40 -165 44 -58 4 -102 0 -139 -10z"/>
<path d="M3690 4155 l0 -385 105 0 105 0 0 150 0 150 155 0 155 0 0 -150 0
-150 105 0 105 0 0 385 0 385 -105 0 -105 0 0 -145 0 -145 -155 0 -155 0 0
145 0 145 -105 0 -105 0 0 -385z"/>
<path d="M4580 4455 l0 -85 305 0 305 0 0 85 0 85 -305 0 -305 0 0 -85z"/>
<path d="M5330 4455 l0 -85 290 0 290 0 0 85 0 85 -290 0 -290 0 0 -85z"/>
<path d="M4580 4160 l0 -80 305 0 305 0 0 80 0 80 -305 0 -305 0 0 -80z"/>
<path d="M5330 3985 l0 -215 105 0 104 0 3 133 3 132 183 3 182 2 0 80 0 80
-290 0 -290 0 0 -215z"/>
<path d="M4580 3850 l0 -80 305 0 305 0 0 80 0 80 -305 0 -305 0 0 -80z"/>
<path d="M4622 3391 c-54 -14 -82 -47 -82 -97 0 -35 5 -47 31 -68 17 -14 43
-29 57 -32 15 -3 40 -9 56 -13 37 -9 57 -37 36 -51 -21 -14 -78 -12 -123 4
-39 15 -41 14 -57 -28 -9 -25 -7 -28 23 -40 31 -13 102 -21 159 -18 15 1 42
17 62 36 30 27 36 41 36 73 0 50 -28 78 -95 94 -96 22 -116 39 -80 69 15 12
79 9 117 -5 12 -5 21 3 33 26 19 35 10 49 -31 49 -12 0 -41 2 -65 4 -24 3 -59
1 -77 -3z"/>
<path d="M6275 3394 c-11 -3 -30 -7 -42 -10 -13 -2 -38 -18 -57 -34 -80 -71
-64 -229 28 -277 134 -70 296 13 296 151 0 64 -35 122 -90 151 -29 14 -105 25
-135 19z m79 -84 c28 -10 56 -57 56 -94 0 -13 -12 -38 -26 -55 -22 -27 -32
-31 -74 -31 -62 0 -90 30 -90 97 0 75 59 112 134 83z"/>
<path d="M6620 3390 c-80 -20 -108 -114 -49 -164 17 -14 43 -29 57 -32 15 -3
40 -9 56 -13 38 -9 57 -37 36 -52 -18 -12 -128 -3 -146 12 -11 9 -16 5 -24
-16 -16 -42 -12 -51 28 -63 99 -29 172 -20 215 28 55 62 26 136 -64 160 -89
23 -94 25 -94 44 0 33 28 42 91 28 32 -6 59 -10 61 -9 1 2 6 17 9 34 4 22 2
32 -9 36 -30 11 -132 16 -167 7z"/>
<path d="M2830 3324 l0 -66 45 49 c59 64 59 83 0 83 l-45 0 0 -66z"/>
<path d="M2941 3271 l-111 -119 0 -51 0 -51 45 0 45 0 0 43 c0 40 21 77 43 77
3 0 27 -27 53 -60 46 -59 48 -60 95 -60 27 0 49 2 49 5 0 3 -32 47 -71 97
l-70 91 48 51 c27 28 57 61 67 74 l19 22 -50 0 -51 0 -111 -119z"/>
<path d="M3200 3367 c0 -12 23 -49 53 -83 28 -34 85 -101 125 -148 66 -77 77
-86 108 -86 29 0 34 3 34 23 0 13 -19 46 -42 74 -24 27 -78 94 -122 147 -75
91 -80 96 -117 96 -34 0 -39 -3 -39 -23z"/>
<path d="M3430 3363 c0 -18 16 -47 45 -81 l45 -54 0 81 0 81 -45 0 c-42 0 -45
-2 -45 -27z"/>
<path d="M3592 3223 l3 -168 45 0 45 0 3 168 2 167 -50 0 -50 0 2 -167z"/>
<path d="M3760 3355 l0 -35 130 0 130 0 0 35 0 35 -130 0 -130 0 0 -35z"/>
<path d="M4080 3355 l0 -35 135 0 135 0 0 35 0 35 -135 0 -135 0 0 -35z"/>
<path d="M4832 3358 c3 -32 4 -33 56 -36 l52 -3 0 -135 0 -135 48 3 47 3 3
133 3 132 49 0 50 0 0 35 0 35 -156 0 -155 0 3 -32z"/>
<path d="M5182 3254 l3 -136 37 -34 c38 -34 60 -39 143 -34 43 2 85 30 106 70
16 28 19 57 19 152 l0 118 -45 0 -45 0 0 -111 c0 -136 -6 -149 -65 -149 -59 0
-65 13 -65 149 l0 111 -46 0 -46 0 4 -136z"/>
<path d="M5560 3356 l0 -34 106 -4 c102 -3 107 -4 130 -31 27 -32 31 -75 9
-116 -17 -35 -32 -41 -96 -41 l-49 0 0 45 0 45 -50 0 -50 0 0 -86 0 -86 118 3
c101 4 122 7 154 27 116 72 105 237 -19 301 -12 6 -71 11 -137 11 l-116 0 0
-34z"/>
<path d="M5970 3219 l0 -170 48 3 47 3 3 168 2 167 -50 0 -50 0 0 -171z"/>
<path d="M4080 3225 l0 -35 135 0 135 0 0 35 0 35 -135 0 -135 0 0 -35z"/>
<path d="M3760 3145 l0 -95 45 0 44 0 3 58 3 57 83 3 82 3 0 34 0 35 -130 0
-130 0 0 -95z"/>
<path d="M3200 3137 l0 -87 45 0 c43 0 45 1 45 29 0 19 -16 49 -45 87 l-45 57
0 -86z"/>
<path d="M4087 3124 c-4 -4 -7 -22 -7 -41 l0 -33 136 0 135 0 -3 38 -3 37
-126 3 c-69 1 -128 -1 -132 -4z"/>
</g>
</svg>
